<?xml version="1.0" encoding="utf-8"?>
<!-- Generator: Adobe Illustrator 17.1.0, SVG Export Plug-In . SVG Version: 6.00 Build 0)  -->
<!DOCTYPE svg PUBLIC "-//W3C//DTD SVG 1.1//EN" "http://www.w3.org/Graphics/SVG/1.1/DTD/svg11.dtd">
<svg version="1.1" id="Layer_1" xmlns="http://www.w3.org/2000/svg" xmlns:xlink="http://www.w3.org/1999/xlink" x="0px" y="0px"
	 viewBox="0 0 354.7 354.7" enable-background="new 0 0 354.7 354.7" xml:space="preserve">
<g>
	<defs>
		<circle id="SVGID_1_" cx="177.4" cy="177.4" r="177.4"/>
	</defs>
	<clipPath id="SVGID_2_">
		<use xlink:href="#SVGID_1_"  overflow="visible"/>
	</clipPath>
	<g clip-path="url(#SVGID_2_)">
		<g>
			<path d="M8.6,346.2c0-112,0-224,0-336c112,0,224,0,336,0c0,112,0,224,0,336C232.6,346.2,120.6,346.2,8.6,346.2z M77.5,154
				c-3.1,0.3-5.5,0.4-7.8,0.8c-2.7,0.5-5.5,1-8.1,2c-6.9,2.6-12.1,7.3-16,13.5c-4.3,7-6.2,14.6-5.8,22.7c0.4,6.3,2.2,12.2,4.7,18
				c1.8,4.1,4.7,7.3,8.7,9.4c2,1,4,2,6.1,2.9c6.1,2.5,12.4,4,19,3.4c5.9-0.5,11.9-1.5,17.8-2.5c4.6-0.7,9.1-0.3,13.4,1.5
				c2,0.9,3.6,2.2,4.4,4.4c0.9,2.5,0,4.6-1.2,6.6c-1.9,3.2-4.7,5.4-7.9,7.2c-3.1,1.8-5.9,3.9-8.3,6.6c-2.4,2.8-3.9,6-5.3,9.3
				c-2.8,6.9-4.1,14-3.1,21.5c0.8,5.9,2.8,11.3,6,16.4c4,6.5,9.7,10.8,17,13.2c5.5,1.8,11.2,1.8,16.8,0.5c6.6-1.5,12.3-4.6,17.1-9.4
				c4-4,6.4-9,9.1-13.9c2.8-5.1,5.5-10.3,8.4-15.3c0.6-1.1,1.5-2.2,2.6-3c4.7-3.4,11.6-1.7,14.4,3.5c2.2,4.1,3.4,8.6,4.4,13.1
				c1.3,6.4,2.9,12.8,7,18.2c2.6,3.4,5.8,5.8,10,6.9c3.4,0.9,6.9,0.9,10.4,0.8c5.8-0.1,11.2-1.6,16-4.7c9.9-6.4,11.6-17.3,7.3-27.2
				c-1.8-4.2-4.6-7.7-7.9-10.9c-3.5-3.4-6.6-7.1-10.1-10.6c-8-8.1-16.1-16.1-24.2-24.1c-4.2-4.2-8.5-8.3-12.7-12.4
				c-1.1-1-1-1.3,0.4-1.8c1.6-0.6,3.2-1.2,4.6-2.1c3.4-2.2,5.9-4.9,5.3-9.5c-0.2-1.6,0.7-2.4,2.4-2.5c0.5,0,1,0,1.4,0
				c2.5-0.2,5-0.5,7.2-1.9c4.1-2.6,6-6.4,6.2-11.1c0.1-2.1,0.4-2.7,2.3-3.4c1-0.4,1.9-0.7,2.9-1.1c3.8-1.6,7.1-3.8,8.7-7.9
				c1-2.7,1.9-2.8,3.9-0.7c2.5,2.6,4.9,5.2,7.4,7.8c4.4,4.6,8.9,9.2,13.4,13.8c9.2,9.3,18.5,18.6,27.8,27.9c3,3,6.6,5.2,10.9,5.8
				c4,0.6,8,0.1,11.8-1.2c5.2-1.7,9.7-4.6,13.7-8.4c6.7-6.5,8.9-14.6,7.5-23.5c-1.1-7-5.1-12.7-10.2-17.6c-3.1-2.9-6.7-4.9-10.7-6.3
				c-3.6-1.2-7.4-2-11.3-1.6c-2.3,0.2-4.7,0.1-7-0.2c-2.7-0.3-4.9-3.4-4.3-5.7c0.5-2,1.7-3.6,3.6-4.6c3.5-1.8,7.2-3,10.9-3.9
				c6.6-1.5,12.6-3.9,17.3-9.1c4.9-5.5,6.5-11.7,4.3-18.7c-2.6-8.1-8.3-13.5-16.3-16.2c-6.1-2.1-12.4-2.1-18.6-0.4
				c-5.3,1.4-10,3.9-14.1,7.6c-2.5,2.3-5.5,3.5-8.8,4.2c-1.8,0.4-3.1-0.6-3-2.4c0-1.5,0.3-3,0.8-4.4c1.2-3,3.5-5,6.1-6.7
				c4.4-2.8,9-5.5,13.4-8.4c4.3-2.9,7.9-6.5,10.5-11c3.2-5.6,4.1-11.5,2.3-17.7c-1.3-4.6-3.8-8.6-6.9-12.2
				c-3.3-3.9-7.3-6.3-12.5-6.7c-4-0.3-7.9-0.3-11.9,0.3c-4.7,0.7-9.1,2.4-12.8,5.3c-5.4,4.2-10,9.3-13.1,15.6
				c-1.1,2.3-2.1,4.7-3.4,6.9c-0.9,1.4-2.1,2.7-3.5,3.5c-1.9,1.2-3.9,0-4.2-2.3c-0.1-0.9,0.1-1.8,0.4-2.7c0.3-1,0.8-2,1.3-3
				c2.2-4.5,3.7-9.3,4.1-14.3c0.3-4.9-0.5-9.6-2.4-14.1c-1.2-2.9-2.3-5.9-4.1-8.4c-3.6-5-8.4-8.6-14.3-10.6
				c-6.2-2.2-12.5-3.2-19-2.2c-5.4,0.8-10.3,2.9-14.8,6c-6.6,4.6-11.2,10.7-14,18.1c-1.4,3.8-2.5,7.8-2.3,11.9
				c0.2,3.3,0.9,6.7,1.5,9.9c0.5,2.7,1.4,5.4,1.9,8.2c0.4,2.1-0.3,4.4-1.9,5.2c-2.7,1.3-6.2-0.1-7.2-2.9c-0.6-1.8-1.1-3.7-1.8-5.4
				c-1.1-2.9-2.1-5.9-3.6-8.6c-1.2-2.3-2.9-4.3-4.5-6.3c-2.5-2.9-5.5-5.2-9-6.7c-5-2.1-10.3-2.4-15.5-2.5c-2.6-0.1-5.3,0.3-7.8,0.7
				c-8.2,1.2-15.1,5-20.9,10.9c-4.2,4.3-7,9.4-9,15c-2.1,5.7-2.8,11.5-1.5,17.4c2.8,12.3,9.1,22.4,19.1,30c3.5,2.7,7.4,4.9,11.1,7.3
				c2.3,1.5,4,3.4,4.7,6.1c0.6,2.4-0.1,4.2-2.3,5.3c-3.2,1.6-6.6,1.8-10.2,1.3C86.7,154.7,81.8,154.3,77.5,154z"/>
			<rect x="-64.4" y="-64" width="488" height="496"/>
			<path fill="#FFFFFF" d="M77.5,154c4.3,0.4,9.3,0.7,14.2,1.3c3.5,0.4,6.9,0.2,10.2-1.3c2.2-1.1,3-2.9,2.3-5.3
				c-0.7-2.7-2.4-4.6-4.7-6.1c-3.8-2.4-7.6-4.6-11.1-7.3c-10-7.6-16.3-17.8-19.1-30c-1.3-5.9-0.6-11.8,1.5-17.4
				c2.1-5.6,4.9-10.7,9-15c5.8-5.9,12.7-9.7,20.9-10.9c2.6-0.4,5.2-0.8,7.8-0.7c5.3,0.1,10.5,0.4,15.5,2.5c3.6,1.5,6.6,3.8,9,6.7
				c1.7,2,3.3,4,4.5,6.3c1.4,2.7,2.5,5.7,3.6,8.6c0.7,1.8,1.2,3.6,1.8,5.4c1,2.8,4.5,4.2,7.2,2.9c1.5-0.8,2.2-3.1,1.9-5.2
				c-0.5-2.7-1.4-5.4-1.9-8.2c-0.6-3.3-1.3-6.6-1.5-9.9c-0.3-4.1,0.8-8.1,2.3-11.9c2.8-7.5,7.4-13.6,14-18.1c4.5-3.1,9.4-5.2,14.8-6
				c6.5-0.9,12.8,0.1,19,2.2c5.9,2.1,10.7,5.6,14.3,10.6c1.8,2.5,2.9,5.5,4.1,8.4c1.9,4.5,2.7,9.2,2.4,14.1
				c-0.3,5.1-1.9,9.8-4.1,14.3c-0.5,1-1,1.9-1.3,3c-0.3,0.9-0.5,1.8-0.4,2.7c0.3,2.3,2.3,3.4,4.2,2.3c1.4-0.9,2.6-2.1,3.5-3.5
				c1.3-2.2,2.3-4.6,3.4-6.9c3.1-6.3,7.7-11.3,13.1-15.6c3.7-2.9,8.1-4.5,12.8-5.3c4-0.6,7.9-0.6,11.9-0.3c5.2,0.3,9.3,2.8,12.5,6.7
				c3.1,3.6,5.6,7.6,6.9,12.2c1.7,6.2,0.9,12.1-2.3,17.7c-2.6,4.5-6.2,8.1-10.5,11c-4.4,2.9-8.9,5.6-13.4,8.4
				c-2.6,1.7-4.9,3.8-6.1,6.7c-0.5,1.4-0.8,2.9-0.8,4.4c0,1.8,1.2,2.8,3,2.4c3.3-0.7,6.3-1.9,8.8-4.2c4.1-3.8,8.8-6.2,14.1-7.6
				c6.3-1.7,12.5-1.7,18.6,0.4c8,2.7,13.7,8.1,16.3,16.2c2.2,6.9,0.6,13.1-4.3,18.7c-4.7,5.2-10.7,7.6-17.3,9.1
				c-3.8,0.9-7.5,2-10.9,3.9c-1.9,1-3.1,2.6-3.6,4.6c-0.6,2.3,1.6,5.3,4.3,5.7c2.3,0.3,4.7,0.4,7,0.2c3.9-0.4,7.7,0.4,11.3,1.6
				c4,1.3,7.6,3.4,10.7,6.3c5.1,4.9,9.1,10.6,10.2,17.6c1.4,8.9-0.7,17-7.5,23.5c-4,3.8-8.5,6.6-13.7,8.4c-3.8,1.3-7.8,1.8-11.8,1.2
				c-4.3-0.6-7.9-2.8-10.9-5.8c-9.3-9.3-18.6-18.5-27.8-27.9c-4.5-4.5-8.9-9.2-13.4-13.8c-2.5-2.6-5-5.2-7.4-7.8
				c-1.9-2.1-2.8-1.9-3.9,0.7c-1.6,4.1-4.8,6.3-8.7,7.9c-1,0.4-1.9,0.8-2.9,1.1c-1.9,0.7-2.3,1.3-2.3,3.4c-0.1,4.8-2.1,8.6-6.2,11.1
				c-2.2,1.4-4.7,1.7-7.2,1.9c-0.5,0-1,0-1.4,0c-1.6,0-2.6,0.9-2.4,2.5c0.7,4.6-1.8,7.3-5.3,9.5c-1.4,0.9-3,1.4-4.6,2.1
				c-1.4,0.6-1.4,0.8-0.4,1.8c4.2,4.1,8.5,8.2,12.7,12.4c8.1,8,16.2,16,24.2,24.1c3.4,3.5,6.6,7.2,10.1,10.6c3.3,3.2,6,6.8,7.9,10.9
				c4.3,9.9,2.6,20.9-7.3,27.2c-4.9,3.1-10.2,4.6-16,4.7c-3.5,0.1-7,0.1-10.4-0.8c-4.2-1.1-7.4-3.5-10-6.9c-4.1-5.4-5.7-11.7-7-18.2
				c-0.9-4.6-2.1-9-4.4-13.1c-2.8-5.2-9.7-6.9-14.4-3.5c-1,0.8-1.9,1.8-2.6,3c-2.9,5.1-5.6,10.2-8.4,15.3c-2.7,4.9-5.1,9.8-9.1,13.9
				c-4.8,4.9-10.5,8-17.1,9.4c-5.6,1.3-11.3,1.3-16.8-0.5c-7.2-2.3-12.9-6.7-17-13.2c-3.1-5.1-5.2-10.5-6-16.4
				c-1-7.5,0.3-14.6,3.1-21.5c1.4-3.3,2.9-6.6,5.3-9.3c2.4-2.7,5.2-4.9,8.3-6.6c3.2-1.8,6-4,7.9-7.2c1.2-2,2.1-4.1,1.2-6.6
				c-0.8-2.2-2.4-3.5-4.4-4.4c-4.3-1.8-8.7-2.3-13.4-1.5c-5.9,0.9-11.8,2-17.8,2.5c-6.6,0.6-12.9-0.9-19-3.4
				c-2.1-0.8-4.1-1.8-6.1-2.9c-4-2.1-6.9-5.3-8.7-9.4c-2.5-5.7-4.3-11.7-4.7-18c-0.5-8.2,1.4-15.7,5.8-22.7c3.9-6.3,9-11,16-13.5
				c2.6-1,5.4-1.5,8.1-2C72,154.3,74.4,154.3,77.5,154z M161.6,87.7c0.2,3.6-0.9,7.2-2.7,10.7c-2,4-5.4,5.8-9.8,5.7
				c-4.7-0.1-8.8-1.6-11.7-5.7c-1.7-2.4-2.7-5.1-3.5-7.8c-1.3-4.1-3.1-8-5.8-11.4c-2.2-2.7-4.7-5.1-8-6.2c-4.5-1.5-9.1-2.2-13.8-1.5
				c-0.8,0.1-1.6,0.2-2.4,0.4c-3.6,0.5-7.1,1.5-10.3,3.4c-6.1,3.6-10.3,8.9-13.4,15.1c-1.6,3.1-2.6,6.4-2,9.9
				c0.5,3.3,1.3,6.7,2.3,9.9c1.5,5.1,4,9.8,8.1,13.4c3,2.5,6.3,4.6,9.5,6.9c3.1,2.2,6.4,4.2,9.4,6.6c4.6,3.7,7.1,8.6,7.2,14.6
				c0,0.9-0.1,1.9-0.5,2.7c-3.1,6.8-8.6,10-15.7,10.9c-3.4,0.4-6.8,0-10.3-0.4c-3.7-0.4-7.5-0.5-11.2-0.7c-3.9-0.2-7.7,0.2-11.4,1.8
				c-11.2,4.9-16.1,14.7-15.9,26.2c0.1,4.1,1,8.1,2.4,11.9c1.4,3.8,3.5,7,7.3,8.6c2.9,1.2,5.9,2.4,9,3.3c4.7,1.4,9.5,1.4,14.4,0.7
				c4.5-0.7,9-1.6,13.6-2.1c5.2-0.6,10.5-0.3,15.5,1.6c4.8,1.8,8.8,4.6,10.8,9.5c2.3,5.9,1.4,11.6-1.8,16.9
				c-2.3,3.8-5.8,6.5-9.5,8.9c-1.9,1.3-4.1,2.3-5.7,4c-7.9,8.4-9.7,18.6-7,29.4c2.1,8.5,8,13.8,16.4,16.2c7.5,2.1,14.4,0.9,20.5-4.1
				c3-2.5,5.4-5.7,7.5-9c3.5-5.7,6.9-11.4,10.3-17.2c1.5-2.5,3.1-4.9,5.7-6.4c5.6-3.3,11.6-4.1,17.9-2.5c4.4,1.1,8.3,3.3,10.4,7.5
				c1.8,3.4,3.2,7.1,4.4,10.7c1.5,5,2.3,10.3,4.4,15.2c1.7,4.1,4.8,6.9,8.9,8.2c6.1,1.9,11.5,0.1,16.4-3.7c3.6-2.8,5.1-6.6,4.6-11.3
				c-0.4-4.2-2.1-7.9-4.6-10.9c-4.9-6.1-10.3-11.8-15.6-17.5c-2.7-2.9-5.7-5.6-8.6-8.4c-8.9-8.8-17.7-17.7-26.5-26.6
				c-2.3-2.3-4.2-5-5.2-8.2c-1.1-3.7-2.5-7.3-3.7-10.9c-5.1-14.5-9.3-29.2-13.6-43.9c-1.3-4.4-2.5-8.9-3.7-13.4
				c-0.3-1.1,0-1.4,1.1-1.2c1.8,0.4,3.6,0.8,5.4,1.3c6.6,1.8,13.2,3.7,19.8,5.3c13,3.2,26,6.1,39,9.3c6.1,1.5,11.6,4.2,16.2,8.5
				c4.6,4.3,9.2,8.8,13.7,13.2c8.7,8.6,17.4,17.2,26.1,25.8c4.1,4,8.1,8.2,12.4,12.1c3.5,3.2,7.7,4.9,12.6,3.4
				c6.3-1.8,11.3-5.4,14.4-11.2c2-3.9,3.5-7.9,2.1-12.4c-1.4-4.3-3.5-8.1-6.9-11c-3.9-3.3-8.7-4.7-13.7-5c-2.3-0.1-4.6,0-6.8-0.3
				c-6.7-0.7-15.1-7-15.3-15.1c-0.1-4.2,1-7.7,4.9-9.7c3.5-1.8,7.1-3.2,10.5-4.9c4.4-2.2,8.8-4.2,12.9-6.8
				c6.1-3.9,6.5-12.1,1.8-16.7c-1.6-1.6-3.4-2.9-5.3-4.1c-6.2-3.8-13.5-2.9-18.8,1.9c-2.9,2.6-5.9,5-9.6,6.1c-2.7,0.8-5.5,1.4-8.2,2
				c-3.2,0.7-6.3,0.4-9.3-0.9c-2.8-1.3-5-3.2-5.6-6.4c-0.3-1.8-0.3-3.6-0.3-5.5c-0.1-3,0.7-5.8,2.2-8.4c2.8-4.8,7-8,11.7-10.8
				c5-2.9,9.9-5.9,14.4-9.5c4.2-3.3,6.4-9.6,4.9-14.7c-0.6-1.8-1.6-3.6-2.6-5.2c-2-3.4-5-5.4-8.8-6.2c-2.7-0.6-5.3,0-7.9,0.6
				c-5.6,1.2-9.7,4.6-13.4,8.6c-1.9,2.1-3.2,4.7-4.6,7.2c-1.4,2.4-2.4,5-3.9,7.4c-2,3.3-4.7,6-8.3,7.3c-6.3,2.3-11.5,0.3-15.7-4.5
				c-1.2-1.4-1.7-3-1.8-4.8c-0.3-3.1,0.9-6,1.5-8.9c1-4.3,3.1-8.3,3.5-12.8c0.4-5.8-0.1-11.4-2.9-16.6c-1.1-2.2-2.6-4.2-4.9-5.2
				c-3.2-1.5-6.6-2.8-9.9-3.9c-3.8-1.2-7.7-1.4-11.6-0.5c-7,1.5-12.4,5.5-16.3,11.4c-2.4,3.6-4.3,7.5-4,12.1
				c0.2,2.4,0.6,4.8,1.1,7.2C160.8,79.6,161.7,83.4,161.6,87.7z M198.9,182.5c0.1,0,0.3,0.1,0.6,0.2c2.1,0.6,4.1,0.8,6.3,0.5
				c3.5-0.6,6.4-1.9,7.7-5.6c0.9-2.7-0.2-5.1-3-5.9c-1.3-0.4-2.5-0.7-3.8-1.1c-9.3-2.2-18.7-4.4-28-6.6c-2-0.5-2.5-0.1-3.5,1.6
				c-1.1,1.8-2.1,3.7-3.7,5.1c-2.7,2.5-5.6,4.7-8.5,7c-1.5,1.1-1.7,1.5-1.1,3.2c3.2,9.7,6.3,19.4,9.5,29.1c0.3,0.9,0.7,1.8,1.3,2.6
				c1.1,1.7,3,2.4,4.8,1.7c2.4-0.9,4.3-2.5,5.5-4.7c1.5-2.7,0.7-5.4,0-8.2c-0.1-0.5-0.3-0.9-0.4-1.5c0.3,0,0.4-0.1,0.5-0.1
				c2.8,1.1,5.7,0.7,8.5,0.1c6.2-1.3,9.4-5.6,8.7-11.8C200,186.3,199.3,184.4,198.9,182.5z M155.8,159.8c0.1,0.5,0.3,1.1,0.4,1.8
				c0.6,2.4,1.1,4.8,1.8,7.2c0.4,1.3,1.1,1.6,2.2,0.8c0.6-0.4,1.2-0.8,1.7-1.3c1.7-1.7,3.4-3.5,5-5.3c0.7-0.9,0.5-1.7-0.5-2
				c-3-0.9-6.1-1.8-9.2-2.6C156.4,158.1,155.8,158.6,155.8,159.8z"/>
			<path d="M161.6,87.7c0.1-4.3-0.8-8.1-1.6-11.9c-0.5-2.4-0.9-4.8-1.1-7.2c-0.4-4.5,1.5-8.4,4-12.1c3.9-5.9,9.3-9.9,16.3-11.4
				c3.9-0.8,7.8-0.7,11.6,0.5c3.4,1.1,6.7,2.4,9.9,3.9c2.3,1,3.8,3.1,4.9,5.2c2.7,5.2,3.3,10.8,2.9,16.6c-0.3,4.5-2.5,8.5-3.5,12.8
				c-0.6,3-1.8,5.8-1.5,8.9c0.2,1.8,0.6,3.5,1.8,4.8c4.2,4.8,9.4,6.8,15.7,4.5c3.6-1.3,6.4-4,8.3-7.3c1.4-2.4,2.5-5,3.9-7.4
				c1.4-2.5,2.7-5.1,4.6-7.2c3.6-4,7.8-7.4,13.4-8.6c2.6-0.6,5.2-1.2,7.9-0.6c3.8,0.8,6.9,2.8,8.8,6.2c1,1.7,2,3.4,2.6,5.2
				c1.6,5.1-0.7,11.4-4.9,14.7c-4.5,3.6-9.4,6.6-14.4,9.5c-4.6,2.8-8.9,6-11.7,10.8c-1.5,2.6-2.3,5.4-2.2,8.4c0,1.8,0,3.7,0.3,5.5
				c0.6,3.2,2.7,5.2,5.6,6.4c3,1.3,6.1,1.6,9.3,0.9c2.8-0.6,5.6-1.2,8.2-2c3.7-1.2,6.8-3.6,9.6-6.1c5.4-4.8,12.7-5.7,18.8-1.9
				c1.9,1.2,3.7,2.5,5.3,4.1c4.7,4.6,4.3,12.8-1.8,16.7c-4.1,2.6-8.6,4.6-12.9,6.8c-3.5,1.7-7.1,3.1-10.5,4.9
				c-3.9,2-5.1,5.5-4.9,9.7c0.2,8.2,8.7,14.4,15.3,15.1c2.3,0.2,4.5,0.2,6.8,0.3c5.1,0.3,9.8,1.6,13.7,5c3.4,2.9,5.6,6.7,6.9,11
				c1.4,4.5,0,8.5-2.1,12.4c-3.1,5.9-8.2,9.4-14.4,11.2c-4.9,1.4-9.1-0.3-12.6-3.4c-4.3-3.8-8.3-8-12.4-12.1
				c-8.7-8.6-17.4-17.2-26.1-25.8c-4.5-4.5-9.1-8.9-13.7-13.2c-4.6-4.3-10.1-7-16.2-8.5c-13-3.1-26-6.1-39-9.3
				c-6.6-1.6-13.2-3.5-19.8-5.3c-1.8-0.5-3.6-0.9-5.4-1.3c-1.1-0.2-1.4,0.1-1.1,1.2c1.2,4.5,2.4,8.9,3.7,13.4
				c4.3,14.7,8.5,29.4,13.6,43.9c1.3,3.6,2.6,7.2,3.7,10.9c1,3.3,2.8,5.9,5.2,8.2c8.8,8.9,17.7,17.7,26.5,26.6
				c2.8,2.8,5.9,5.5,8.6,8.4c5.3,5.7,10.7,11.5,15.6,17.5c2.5,3.1,4.1,6.8,4.6,10.9c0.5,4.7-1,8.5-4.6,11.3
				c-4.8,3.8-10.3,5.6-16.4,3.7c-4.1-1.3-7.2-4.1-8.9-8.2c-2-4.9-2.8-10.1-4.4-15.2c-1.1-3.7-2.6-7.3-4.4-10.7
				c-2.1-4.2-6-6.4-10.4-7.5c-6.3-1.6-12.3-0.8-17.9,2.5c-2.6,1.5-4.2,3.9-5.7,6.4c-3.5,5.7-6.8,11.5-10.3,17.2
				c-2.1,3.3-4.4,6.5-7.5,9c-6.1,5-13,6.2-20.5,4.1c-8.4-2.4-14.3-7.7-16.4-16.2c-2.7-10.9-0.9-21,7-29.4c1.5-1.7,3.7-2.7,5.7-4
				c3.7-2.4,7.2-5.1,9.5-8.9c3.2-5.3,4.2-11,1.8-16.9c-2-5-6-7.8-10.8-9.5c-5-1.9-10.2-2.2-15.5-1.6c-4.5,0.6-9,1.5-13.6,2.1
				c-4.8,0.7-9.7,0.6-14.4-0.7c-3.1-0.9-6-2.1-9-3.3c-3.9-1.6-6-4.8-7.3-8.6c-1.4-3.9-2.3-7.8-2.4-11.9
				c-0.2-11.5,4.7-21.3,15.9-26.2c3.6-1.6,7.5-2,11.4-1.8c3.7,0.2,7.5,0.2,11.2,0.7c3.4,0.4,6.8,0.8,10.3,0.4
				c7.1-0.9,12.7-4.2,15.7-10.9c0.4-0.8,0.5-1.8,0.5-2.7c-0.1-6-2.6-10.9-7.2-14.6c-3-2.4-6.3-4.4-9.4-6.6c-3.2-2.2-6.5-4.3-9.5-6.9
				c-4.1-3.5-6.6-8.2-8.1-13.4c-1-3.2-1.7-6.6-2.3-9.9c-0.6-3.5,0.4-6.8,2-9.9c3.1-6.2,7.3-11.5,13.4-15.1c3.2-1.9,6.7-2.8,10.3-3.4
				c0.8-0.1,1.6-0.2,2.4-0.4c4.7-0.7,9.3,0,13.8,1.5c3.4,1.1,5.9,3.5,8,6.2c2.7,3.4,4.5,7.2,5.8,11.4c0.8,2.8,1.8,5.5,3.5,7.8
				c2.9,4,7,5.6,11.7,5.7c4.3,0.1,7.8-1.7,9.8-5.7C160.7,94.9,161.9,91.2,161.6,87.7z"/>
			<path d="M198.9,182.5c0.5,1.9,1.1,3.8,1.3,5.7c0.7,6.2-2.5,10.6-8.7,11.8c-2.8,0.6-5.7,1-8.5-0.1c-0.1,0-0.2,0-0.5,0.1
				c0.1,0.5,0.3,1,0.4,1.5c0.7,2.7,1.5,5.4,0,8.2c-1.3,2.2-3.1,3.8-5.5,4.7c-1.8,0.7-3.7,0-4.8-1.7c-0.5-0.8-1-1.7-1.3-2.6
				c-3.2-9.7-6.3-19.4-9.5-29.1c-0.6-1.7-0.3-2.1,1.1-3.2c2.9-2.3,5.9-4.5,8.5-7c1.5-1.4,2.6-3.3,3.7-5.1c1-1.8,1.5-2.1,3.5-1.6
				c9.3,2.2,18.7,4.4,28,6.6c1.3,0.3,2.5,0.7,3.8,1.1c2.8,0.8,3.9,3.2,3,5.9c-1.3,3.7-4.1,5-7.7,5.6c-2.2,0.3-4.2,0.1-6.3-0.5
				C199.2,182.5,198.9,182.5,198.9,182.5z"/>
			<path d="M155.8,159.8c0-1.2,0.6-1.7,1.4-1.5c3.1,0.8,6.1,1.7,9.2,2.6c1,0.3,1.2,1.1,0.5,2c-1.6,1.8-3.3,3.6-5,5.3
				c-0.5,0.5-1.1,0.9-1.7,1.3c-1.1,0.8-1.9,0.5-2.2-0.8c-0.6-2.4-1.2-4.8-1.8-7.2C156.1,160.9,155.9,160.3,155.8,159.8z"/>
		</g>
	</g>
</g>
</svg>
